<?xml version="1.0" encoding="UTF-8"?>
<svg id="Layer_1" data-name="Layer 1" xmlns="http://www.w3.org/2000/svg" viewBox="0 0 1920 1440">
  <defs>
    <style>
      .cls-1 {
        fill: #fff;
      }
    </style>
  </defs>
  <rect class="cls-1" width="1920" height="1440"/>
  <g id="_6" data-name="6">
    <path d="M1740.37,256.83l-.59-.05c-28.44-2.46-51.98,7.45-54.64,38.26l-2.36,27.26c-1.87,21.63,8.87,32.11,28.01,45.4l22.82,15.7c9.88,6.52,12.68,12.14,11.76,22.8l-1.41,16.29c-1.1,12.74-8.99,17.73-19.36,16.83-10.37-.9-17.29-7.17-16.19-19.9l2.71-31.4-33.77-2.92-3.12,36.14c-1.44,16.67,2.91,28.1,11.77,35.65l-48.04-1.69,6.23-177.12-34.47-1.21-4.57,129.93-20.32-197.63-43.26-3.64-51.76,188.82-2.71-133.63-33.89.69-37.98,121.82-42.59-120.19-28.6.58,10.43-51.21-33.8-6.89-38,186.51-5.52-109.59-31.48,1.59,6.48,128.59-50.13-126.4-34.45,1.73,7.99,158.57-57.38-196.01-43.2,4.26-18.02,210.94,33.14-3.27,2.84-46.89,37.88-3.74,11.96,45.43,33.16-3.27,2.11,41.86,31.48-1.59-6.81-135.13,52.24,132.84,32.67-1.65-4.03-79.94,29.32,5.97,27.39-134.43,3.84,189.87,32.11-.65-2.58-127.24,33.18,96.29,19.32-.39,29.25-97.55,2.58,127.24,33.3-.67-1.19-58.75,28.66,2.41,11.3-45.6,37.93,3.19,3.52,46.85,33.17,2.79-2.29,65.17,87.67,3.08.97-27.49c7.93,4.75,18.34,7.37,30.71,8.44l.59.05c31.4,2.71,52.23-6.83,54.99-38.82l2.59-29.92c1.92-22.22-9.14-32.43-28.01-45.4l-23.11-15.73c-9.29-6.47-12.44-11.52-11.51-22.19l1.23-14.22c1.13-13.04,8.94-17.14,19.01-16.26,10.07.87,17.07,6.25,15.94,19.29l-2.51,29.03,33.77,2.92,2.92-33.77c2.66-30.81-18.83-44.61-47.27-47.07ZM1094.56,386.73l5.42-93.46,23.59,90.6-29,2.86ZM1536.91,338.82l22.27-90.93,6.77,93.38-29.04-2.44Z"/>
  </g>
  <g id="_5" data-name="5">
    <polygon points="560.63 678.92 559.7 678 535.69 678 533.84 678.92 495.97 724.18 458.1 678.92 456.25 678 432.23 678 431.31 678.92 431.31 744.78 441.2 744.03 441.2 804.35 442.13 805.28 466.14 805.28 467.07 804.35 467.07 742.06 488.22 740.45 504.94 760.02 506.78 760.02 525.95 737.58 544.66 736.16 544.66 804.35 545.58 805.28 569.59 805.28 570.52 804.35 570.52 732.91 560.63 733.66 560.63 678.92"/>
    <polygon points="409.14 678.92 408.22 678 384.2 678 383.28 678.92 383.28 748.43 393.17 747.68 393.17 804.35 394.09 805.28 418.11 805.28 419.03 804.35 419.03 744.43 409.14 745.18 409.14 678.92"/>
    <polygon points="361.1 678.92 360.18 678 336.16 678 335.24 678.92 335.24 750.8 326.39 751.47 270.58 678.92 268.74 678 243.8 678 242.87 678.92 242.87 759.11 252.77 758.36 252.77 804.35 253.69 805.28 277.71 805.28 278.63 804.35 278.63 756.39 304.86 754.39 343.29 804.35 345.13 805.28 370.07 805.28 371 804.35 371 748.08 361.1 748.83 361.1 678.92"/>
    <polygon points="212.18 760.16 180.98 678.92 180.06 678 154.19 678 153.27 678.92 118.85 768.54 128.24 767.83 114.21 804.35 115.13 805.28 143.77 805.28 144.69 804.35 153.93 778.49 200.11 778.49 209.35 804.35 210.27 805.28 238.91 805.28 239.83 804.35 222.55 759.37 212.18 760.16"/>
    <polygon points="747.88 779.41 747.88 719.42 737.98 720.17 737.98 678.92 737.06 678 713.04 678 712.12 678.92 712.12 723.42 722.01 722.67 722.01 804.35 722.94 805.28 796.83 805.28 797.75 804.35 797.75 780.34 796.83 779.41 747.88 779.41"/>
    <path d="M842.02,712.26l-10.44.79c-.19-.58-.3-1.18-.3-1.8,0-5.54,2.77-9.24,9.24-9.24,4.62,0,10.16,2.77,14.22,8.31h1.85l19.95-14.78c-10.16-13.86-20.32-20.32-36.02-20.32-20.51,0-36.95,14.78-36.95,36.02,0,1.82.15,3.55.41,5.19l10.13-.77c6.1,29.54,53.85,30.06,53.85,50.81,0,9.24-6.47,14.78-15.7,14.78-7.39,0-15.7-3.69-20.32-16.07h-1.85l-21.24,14.22c6.47,18.47,24.02,28.63,43.41,28.63,24.94,0,43.41-19.4,43.41-41.57,0-39.36-46.75-42.26-53.65-54.22Z"/>
    <polygon points="668.11 725.49 650.23 678.92 649.3 678 623.44 678 622.52 678.92 602.21 731.78 611.6 731.07 583.45 804.35 584.38 805.28 613.01 805.28 613.94 804.35 623.17 778.49 669.36 778.49 678.59 804.35 679.52 805.28 708.15 805.28 709.08 804.35 678.48 724.7 668.11 725.49"/>
  </g>
  <g id="_4" data-name="4">
    <path d="M1104.79,1159.8h-12.92l-1.38,19.89h-58.82l33.22-152.16h80.5l33.21,152.16h-72.43l-1.38-19.89ZM1102.71,1129.5l-3.46-47.87h-1.61l-3.46,47.87h8.54Z"/>
    <path d="M1289.17,1027.52h59.97v152.16h-59.97v-152.16Z"/>
    <path d="M1558.52,1159.8h-12.92l-1.38,19.89h-58.82l33.21-152.16h80.5l33.22,152.16h-72.43l-1.38-19.89ZM1556.45,1129.5l-3.46-47.87h-1.61l-3.46,47.87h8.53Z"/>
    <polygon points="1240.8 1010.57 1242.65 1074.86 1242.19 1074.86 1233.42 1010.57 1150.54 1010.57 1183.76 1162.73 1204.13 1162.73 1200.44 1087.12 1200.9 1087.12 1211.97 1162.73 1280.63 1162.73 1280.63 1010.57 1240.8 1010.57"/>
    <polygon points="1445.79 1010.57 1441.41 1057.75 1440.71 1057.75 1436.56 1010.57 1357.68 1010.57 1357.68 1162.73 1404.5 1162.73 1403.35 1096.14 1404.04 1096.14 1413.96 1162.73 1444.4 1162.73 1454.32 1096.14 1455.01 1096.14 1453.86 1162.73 1480.39 1162.73 1513.6 1010.57 1445.79 1010.57"/>
    <g>
      <path d="M1801.37,1097.13c-6.69-5.55-15.92-8.79-26.76-11.1-9.69-2.08-17.07-3.24-19.84-5.32-2.31-1.62-3.23-4.16-3.23-9.71s1.15-8.33,4.38-8.33c3.92,0,5.3,3.01,5.3,15.73h48.21c0-34.69-13.84-52.96-58.36-52.96-39.44,0-59.97,21.04-59.97,51.34,0,16.19,5.3,27.52,13.15,33.53,7.84,6.01,18.45,9.02,26.06,10.64,6.92,1.39,13.84,2.54,17.3,3.93,3.46,1.39,4.38,3.93,4.38,9.95,0,7.17-1.38,9.71-4.15,9.71-3.46,0-4.84-3.7-4.84-16.88h-51.67c0,30.53,12.46,54.11,59.51,54.11,44.06,0,62.28-21.04,62.28-52.26,0-15.49-4.15-26.13-11.76-32.37Z"/>
      <path d="M1682.82,1127.65v-8.54h19.1c-.99-.65-1.93-1.32-2.84-2.01-2.23-1.71-4.24-3.7-6.03-5.93h-28.39v-100.59h-60.43l33.21,152.16h53.2c-5.2-9.34-7.82-21.04-7.82-35.08Z"/>
    </g>
  </g>
  <g id="_3" data-name="3">
    <path d="M309.45,1019.59c.18,3.02.53,6.99,1,11.63l43.11,39.29-3.31-56.22-70.11-18.48,28.93,17.18.39,6.6Z"/>
    <polygon points="411.97 1121.43 368.45 1147.98 368.45 1197.73 436.65 1222.76 411.97 1202.82 411.97 1121.43"/>
    <polygon points="745.23 1065.66 701.44 1085.25 701.44 1197.73 768.57 1197.73 756.36 1234.47 774.89 1197.73 786.27 1160.54 745.23 1160.54 745.23 1065.66"/>
    <polygon points="526.53 1159.74 530.33 1204.2 573.33 1202.82 565.56 1111.77 526.53 1159.74"/>
    <path d="M876.59,1112.79l44.42-47.13-54.34,34.77-45.07,21.86c17.41,15.03,19.22,19.09,19.76,32.85.27,6.88-.95,10.79-4.81,10.94-4.13.16-6.16-2.51-6.6-13.52l-.59-14.86-41.12,12.64c1.29,32.75,15.25,51.22,49.92,49.86,38.8-1.53,48.15-23.12,46.83-56.69-.51-13-3.25-22.4-8.41-30.72Z"/>
    <path d="M462.82,1065.78l2.2-.15c2.06,12.49,4.79,30.03,7.59,48.58l15.36-53.14,8.92-31.51-11.23,17.44c-1.95-11.82-3.73-22.41-5-29.3l-59.6,3.52,5.07,72.55-16.88,9.77-7.68-94.08-43.11,6.81,6.11,74.85-14.01-16.77-40.72-41.76c.94,21.62,3.8,57.9,6.29,81.7h-1.93c-1.1-7.71-15.12-81.17-19.53-101.28l-45.47,1.3v67.46l-20.06-22.38,20.06,34.62,37.26,55.68c-1.14-22.68-2.61-46.8-3.39-58.27h2.2c.83,6.06,13.77,90.61,15.97,106.31h49.3v-114.08l14.28,10.73,4.24,51.86,41.21-30,16.1-18.81,7.47,106.78,40.98-6.47-4.35-42.2c-2.21-31.6-5.86-68.06-7.66-89.75Z"/>
    <path d="M631.44,1122.81h-3.26c.42-9.16,1.35-25.66,2.19-40.67l-33.1-49.18-6.14,57.58-23.27,8.23v-84.48h-61.97c-3.86,37.46-4.96,54.81-7.44,80.7h-1.65c-.6-9.6-1.72-22.9-2.96-36.27l-19.03,51.94c2.7,33.58,5.4,70.44,6.28,87.07h31.95c.55-12.39,6.89-90.06,10.19-135.23h2.2c-.28,24.51-.55,66.1-.55,90.61l42.97-44.47,22.92-14.8-11.08,103.89,44.24,6.62,2.58-45.18h8.97l-4.06-36.36Z"/>
    <path d="M244.26,1099.36l7.41,103.46,38.98-1.98c-.66-9.25-3.1-31.1-5.24-48.61l-41.15-52.88Z"/>
    <path d="M173.6,1050.78l1.93-.07c.65,5.35,2.46,21.8,4.19,37.98l31.1-63.82,38.37-67-40.11,54.9-69.89,6.44-8.95,131.55,42.59-51.3c.34-19.91.8-43.22.77-48.68Z"/>
    <path d="M184.45,1088.97c.95,13.78,1.85,27.39,2.23,33.84h-10.74c.26-5.67.72-14.15,1.22-23.35l-44.51,49.62-43.77,48.64,42.87-40.14-4.28,40.14h44.62l2.2-38.56h14.32l2.2,38.56h45.17l-18.01-171.33-33.52,62.58Z"/>
    <path d="M816.01,1124.3l42.07-27.19c-6.29-5.01-13.92-9.96-23.12-15.8-15.58-10.02-17.84-13.56-19.39-23.07-1.33-8.16.13-11.18,3.39-11.71,4.08-.66,6.11,1.52,7.61,10.76l.78,4.8,39.53,2.86-1.82-11.15c-3.99-24.46-14.64-47.01-53.24-40.72-35.07,5.71-42.31,29.78-37.57,58.86,3.65,22.4,14.26,33.12,32.88,46.27l-34.18,28.02,43.04-21.93Z"/>
    <path d="M704.4,1077.27l45.82-14.21,6.14-51-43.48-5.24-7.18,59.59-22.99,15.22-5.21-61.05-69.67-1.37-22.79-34.78,20.43,53.41,32.13,49.82h0c1.09-14.32,2.07-27.28,2.28-31.18l1.93.04c.63,9.93,2.99,57.91,3.54,71.97l-11.25-.9,8.39,37.18,4.07.11,1.45,45.2,45.16-5.72-10.24-120.15,21.46-6.93Z"/>
  </g>
  <g id="_2" data-name="2">
    <g>
      <path d="M1146.75,773.05c.42,1.11-.14,1.81-1.25,1.81h-45.56c-.98,0-1.39-.56-1.67-1.39l-2.65-7.94h-12.54l-2.65,7.94c-.28.84-.7,1.39-1.67,1.39h-45.7c-1.11,0-1.67-.7-1.25-1.81l34.13-98.92c.28-.56.7-.84,1.39-.84h44.31c.56,0,1.11.28,1.25.84l33.86,98.92ZM1089.35,746.3l-4.32,13.38h8.64l-4.32-13.38Z"/>
      <path d="M1199.69,773.61c0,.7-.7,1.25-1.39,1.25h-45.28c-.7,0-1.25-.56-1.25-1.25v-98.92c0-.84.56-1.39,1.25-1.39h45.56c.84,0,1.39.42,1.53,1.25l6.27,48.76c0,.28.28.28.28,0v-48.62c0-.84.56-1.39,1.25-1.39h45.28c.7,0,1.39.56,1.39,1.39v98.92c0,.7-.7,1.25-1.39,1.25h-45.7c-.56-.14-.97-.7-1.11-1.25l-6.41-49.88c0-.28-.28-.28-.28,0v49.88Z"/>
      <path d="M1260.16,697.68c0-13.79,11.29-24.38,25.08-24.38s25.08,10.59,25.08,24.38-11.15,24.94-25.08,24.94-25.08-11.15-25.08-24.94ZM1308.22,725.54c.7,0,1.39.7,1.39,1.39v46.53c0,.84-.7,1.39-1.39,1.39h-45.98c-.7,0-1.39-.56-1.39-1.39v-46.53c0-.7.7-1.39,1.39-1.39h45.98Z"/>
      <path d="M1377.33,774.87c-.7,0-.84,0-1.11-.84l-11.15-35.95c-.28-.97-.97-1.39-1.67-1.39-.84,0-1.39.84-1.39,1.53v35.39c0,.7-.56,1.25-1.25,1.25h-44.86c-.7,0-1.25-.56-1.25-1.25v-98.92c0-.84.56-1.39,1.25-1.39h72.87c.7,0,.98.42,1.25,1.39l6.41,22.29c.28.84.84,1.11,1.53,1.11s1.25-.28,1.53-1.11l6.13-22.29c.28-.98.56-1.39,1.25-1.39h72.87c.7,0,1.25.56,1.25,1.39v98.92c0,.7-.56,1.25-1.25,1.25h-44.86c-.7,0-1.25-.56-1.25-1.25v-35.39c0-.7-.56-1.53-1.39-1.53-.7,0-1.39.42-1.67,1.39l-11.15,35.95c-.28.84-.42.84-1.11.84h-40.96Z"/>
      <path d="M1599.55,773.05c.42,1.11-.14,1.81-1.25,1.81h-45.56c-.98,0-1.39-.56-1.67-1.39l-2.65-7.94h-12.54l-2.65,7.94c-.28.84-.7,1.39-1.67,1.39h-45.7c-1.11,0-1.67-.7-1.25-1.81l34.13-98.92c.28-.56.7-.84,1.39-.84h44.31c.56,0,1.11.28,1.25.84l33.86,98.92ZM1542.15,746.3l-4.32,13.38h8.64l-4.32-13.38Z"/>
      <path d="M1603.17,674.55c0-.7.56-1.25,1.25-1.25h45.14c.7,0,1.39.56,1.39,1.25v69.38h52.39c.7,0,1.39.56,1.39,1.25v28.42c0,.7-.7,1.25-1.39,1.25h-98.92c-.7,0-1.25-.56-1.25-1.25v-99.06Z"/>
      <path d="M1761.72,745.89c2.09,0,3.76-1.53,3.76-3.34,0-2.51-2.09-4.04-5.29-4.04-31.07-.14-52.67-10.17-52.67-31.63,0-19.65,25.64-33.58,53.08-33.58s51.55,11.15,51.55,32.05c0,.84-.7,1.53-1.67,1.53h-44.72c-1.11,0-1.95-.7-1.95-1.95,0-1.95-1.81-3.2-3.9-3.2-2.23,0-4.04,1.53-4.04,3.34,0,.97.28,3.48,3.9,3.48,34.97,0,53.36,12.68,53.36,34,0,19.92-18.39,32.32-53.22,32.32-27.59,0-51.69-11.42-51.69-32.74,0-.84.7-1.53,1.67-1.53h46.12c.98,0,1.67.7,1.67,1.53,0,2.51,1.53,3.76,4.04,3.76Z"/>
    </g>
    <g>
      <rect x="1031.67" y="780.72" width="48.76" height="5.85" rx="2.93" ry="2.93"/>
      <rect x="1098.13" y="780.72" width="48.76" height="5.85" rx="2.93" ry="2.93"/>
      <rect x="1484.47" y="780.72" width="48.76" height="5.85" rx="2.93" ry="2.93"/>
      <rect x="1550.92" y="780.72" width="48.76" height="5.85" rx="2.93" ry="2.93"/>
      <rect x="1151.76" y="780.72" width="47.93" height="5.85" rx="2.93" ry="2.93"/>
      <rect x="1206.66" y="780.72" width="47.93" height="5.85" rx="2.93" ry="2.93"/>
      <rect x="1260.85" y="780.72" width="48.76" height="5.85" rx="2.93" ry="2.93"/>
      <rect x="1314.63" y="780.72" width="47.37" height="5.85" rx="2.93" ry="2.93"/>
      <rect x="1433.62" y="780.72" width="47.37" height="5.85" rx="2.93" ry="2.93"/>
      <rect x="1603.17" y="780.72" width="101.57" height="5.85" rx="2.93" ry="2.93"/>
      <rect x="1376.21" y="780.72" width="43.19" height="5.85" rx="2.93" ry="2.93"/>
      <g>
        <path d="M1725.76,780.72h-15.51c-1.12,0-2.03.91-2.03,2.03v1.79c0,1.12.91,2.03,2.03,2.03h33.45c-6.63-1.2-12.74-3.16-17.94-5.85Z"/>
        <path d="M1778.54,786.57h32.56c1.12,0,2.03-.91,2.03-2.03v-1.79c0-1.12-.91-2.03-2.03-2.03h-14.03c-5.03,2.66-11.22,4.64-18.53,5.85Z"/>
      </g>
    </g>
    <g>
      <rect x="1031.67" y="792.42" width="48.76" height="5.85" rx="2.93" ry="2.93"/>
      <rect x="1098.13" y="792.42" width="48.76" height="5.85" rx="2.93" ry="2.93"/>
      <rect x="1484.47" y="792.42" width="48.76" height="5.85" rx="2.93" ry="2.93"/>
      <rect x="1550.92" y="792.42" width="48.76" height="5.85" rx="2.93" ry="2.93"/>
      <rect x="1151.76" y="792.42" width="47.93" height="5.85" rx="2.93" ry="2.93"/>
      <rect x="1206.66" y="792.42" width="47.93" height="5.85" rx="2.93" ry="2.93"/>
      <rect x="1260.85" y="792.42" width="48.76" height="5.85" rx="2.93" ry="2.93"/>
      <rect x="1314.63" y="792.42" width="47.37" height="5.85" rx="2.93" ry="2.93"/>
      <rect x="1433.62" y="792.42" width="47.37" height="5.85" rx="2.93" ry="2.93"/>
      <rect x="1603.17" y="792.42" width="101.57" height="5.85" rx="2.93" ry="2.93"/>
      <rect x="1708.22" y="792.42" width="104.91" height="5.85" rx="2.93" ry="2.93"/>
      <rect x="1376.21" y="792.42" width="43.19" height="5.85" rx="2.93" ry="2.93"/>
    </g>
    <g>
      <rect x="1708.22" y="804.12" width="104.91" height="5.85" rx="2.93" ry="2.93"/>
      <rect x="1031.67" y="804.12" width="48.76" height="5.85" rx="2.93" ry="2.93"/>
      <rect x="1098.13" y="804.12" width="48.76" height="5.85" rx="2.93" ry="2.93"/>
      <rect x="1484.47" y="804.12" width="48.76" height="5.85" rx="2.93" ry="2.93"/>
      <rect x="1550.92" y="804.12" width="48.76" height="5.85" rx="2.93" ry="2.93"/>
      <rect x="1151.76" y="804.12" width="47.93" height="5.85" rx="2.93" ry="2.93"/>
      <rect x="1206.66" y="804.12" width="47.93" height="5.85" rx="2.93" ry="2.93"/>
      <rect x="1260.85" y="804.12" width="48.76" height="5.85" rx="2.93" ry="2.93"/>
      <rect x="1314.63" y="804.12" width="47.37" height="5.85" rx="2.93" ry="2.93"/>
      <rect x="1433.62" y="804.12" width="47.37" height="5.85" rx="2.93" ry="2.93"/>
      <rect x="1603.17" y="804.12" width="101.57" height="5.85" rx="2.93" ry="2.93"/>
      <rect x="1376.21" y="804.12" width="43.19" height="5.85" rx="2.93" ry="2.93"/>
    </g>
  </g>
  <g id="_1" data-name="1">
    <g>
      <path d="M178.22,404.99h-14.15l-1.48,17.54h-48.38l19.65-143.65h77.74l19.65,143.65h-51.55l-1.48-17.54ZM170.19,314.78l-3.17,49.65h8.24l-3.38-49.65h-1.69Z"/>
      <path d="M233.57,278.87h52.81l10.56,50.07h.84v-50.07h46.05v143.65h-52.81l-10.56-50.07h-.84v50.07h-46.05v-143.65Z"/>
      <path d="M401.31,422.52h-52.81v-143.65h52.81v143.65Z"/>
      <path d="M405.96,278.87h79.43l4.65,56.19h.42l4.65-56.19h70.56v143.65h-49.86v-97.18h-.63l-9.51,97.18h-42.46l-9.51-97.18h-.85v97.18h-46.9v-143.65Z"/>
      <path d="M632.01,404.99h-14.15l-1.48,17.54h-48.38l19.65-143.65h77.74l19.65,143.65h-51.55l-1.48-17.54ZM623.99,314.78l-3.17,49.65h8.24l-3.38-49.65h-1.69Z"/>
      <path d="M740.18,373.72h44.36v48.8h-97.18v-143.65h52.81v94.86Z"/>
      <path d="M787.51,377.52v-.63h52.39v5.92c0,3.38.63,4.23,2.32,4.23,2.11,0,2.32-1.48,2.11-6.13-.21-6.76-2.75-8.45-19.22-13.52-21.55-6.55-37.6-19.23-37.6-45.42,0-31.05,19.65-46.9,53.66-46.9h2.11c35.07,0,52.39,18.17,52.39,48.38v.63h-51.12v-5.92c0-3.38-.63-4.23-2.32-4.23s-2.32.85-2.32,4.65c0,7.39,1.9,8.87,19.43,14.16,26.83,8.24,36.34,20.91,36.34,44.36,0,33.38-17.75,49.22-51.34,49.22h-4.23c-38.45,0-52.6-20.07-52.6-48.8Z"/>
    </g>
    <g>
      <polygon points="287.85 426.32 291.03 441.43 343.85 441.43 343.85 426.32 287.85 426.32"/>
      <rect x="348.5" y="426.32" width="52.81" height="15.11"/>
      <rect x="233.57" y="426.32" width="46.05" height="15.11"/>
      <polygon points="116.27 426.32 114.21 441.43 162.59 441.43 163.86 426.32 116.27 426.32"/>
      <polygon points="178.42 426.32 179.7 441.43 231.24 441.43 229.18 426.32 178.42 426.32"/>
      <rect x="405.96" y="426.32" width="46.9" height="15.11"/>
      <rect x="515.81" y="426.32" width="49.86" height="15.11"/>
      <polygon points="461.73 426.32 463.21 441.43 505.67 441.43 507.15 426.32 461.73 426.32"/>
      <path d="M795.15,426.32c7.81,11.8,22.09,18.91,44.96,18.91h4.23c20.95,0,35.73-6.17,43.9-18.91h-93.08Z"/>
      <rect x="687.37" y="426.32" width="97.18" height="15.11"/>
      <polygon points="570.07 426.32 568 441.43 616.38 441.43 617.66 426.32 570.07 426.32"/>
      <polygon points="632.22 426.32 633.49 441.43 685.04 441.43 682.97 426.32 632.22 426.32"/>
    </g>
    <g>
      <polygon points="287.85 445.23 291.03 460.34 343.85 460.34 343.85 445.23 287.85 445.23"/>
      <rect x="348.5" y="445.23" width="52.81" height="15.11"/>
      <rect x="233.57" y="445.23" width="46.05" height="15.11"/>
      <polygon points="116.27 445.23 114.21 460.34 162.59 460.34 163.86 445.23 116.27 445.23"/>
      <polygon points="178.42 445.23 179.7 460.34 231.24 460.34 229.18 445.23 178.42 445.23"/>
      <rect x="405.96" y="445.23" width="46.9" height="15.11"/>
      <rect x="515.81" y="445.23" width="49.86" height="15.11"/>
      <polygon points="461.73 445.23 463.21 460.34 505.67 460.34 507.15 445.23 461.73 445.23"/>
      <path d="M795.15,445.23c7.81,11.8,22.09,18.91,44.96,18.91h4.23c20.95,0,35.73-6.17,43.9-18.91h-93.08Z"/>
      <rect x="687.37" y="445.23" width="97.18" height="15.11"/>
      <polygon points="570.07 445.23 568 460.34 616.38 460.34 617.66 445.23 570.07 445.23"/>
      <polygon points="632.22 445.23 633.49 460.34 685.04 460.34 682.97 445.23 632.22 445.23"/>
    </g>
    <g>
      <polygon points="287.85 464.14 291.03 479.24 343.85 479.24 343.85 464.14 287.85 464.14"/>
      <rect x="348.5" y="464.14" width="52.81" height="15.11"/>
      <rect x="233.57" y="464.14" width="46.05" height="15.11"/>
      <polygon points="116.27 464.14 114.21 479.24 162.59 479.24 163.86 464.14 116.27 464.14"/>
      <polygon points="178.42 464.14 179.7 479.24 231.24 479.24 229.18 464.14 178.42 464.14"/>
      <rect x="405.96" y="464.14" width="46.9" height="15.11"/>
      <rect x="515.81" y="464.14" width="49.86" height="15.11"/>
      <polygon points="461.73 464.14 463.21 479.24 505.67 479.24 507.15 464.14 461.73 464.14"/>
      <path d="M795.15,464.14c7.81,11.8,22.09,18.91,44.96,18.91h4.23c20.95,0,35.73-6.17,43.9-18.91h-93.08Z"/>
      <rect x="687.37" y="464.14" width="97.18" height="15.11"/>
      <polygon points="570.07 464.14 568 479.24 616.38 479.24 617.66 464.14 570.07 464.14"/>
      <polygon points="632.22 464.14 633.49 479.24 685.04 479.24 682.97 464.14 632.22 464.14"/>
    </g>
    <g>
      <polygon points="667.46 275.06 665.39 259.96 587.65 259.96 585.58 275.06 667.46 275.06"/>
      <rect x="687.37" y="259.96" width="52.81" height="15.11"/>
      <path d="M887.69,275.06c-8.28-12.12-23.03-18.91-44.41-18.91h-2.11c-21.53,0-37.28,6.37-45.96,18.91h92.49Z"/>
      <polygon points="565.67 275.06 565.67 259.96 495.11 259.96 493.86 275.06 565.67 275.06"/>
      <polygon points="289.57 275.06 286.39 259.96 233.57 259.96 233.57 275.06 289.57 275.06"/>
      <polygon points="486.64 275.06 485.39 259.96 405.96 259.96 405.96 275.06 486.64 275.06"/>
      <polygon points="213.66 275.06 211.6 259.96 133.86 259.96 131.79 275.06 213.66 275.06"/>
      <rect x="297.79" y="259.96" width="46.05" height="15.11"/>
      <rect x="348.5" y="259.96" width="52.81" height="15.11"/>
    </g>
    <g>
      <polygon points="667.46 256.16 665.39 241.05 587.65 241.05 585.58 256.16 667.46 256.16"/>
      <rect x="687.37" y="241.05" width="52.81" height="15.11"/>
      <path d="M887.69,256.16c-8.28-12.12-23.03-18.91-44.41-18.91h-2.11c-21.53,0-37.28,6.37-45.96,18.91h92.49Z"/>
      <polygon points="565.67 256.16 565.67 241.05 495.11 241.05 493.86 256.16 565.67 256.16"/>
      <polygon points="289.57 256.16 286.39 241.05 233.57 241.05 233.57 256.16 289.57 256.16"/>
      <polygon points="486.64 256.16 485.39 241.05 405.96 241.05 405.96 256.16 486.64 256.16"/>
      <polygon points="213.66 256.16 211.6 241.05 133.86 241.05 131.79 256.16 213.66 256.16"/>
      <rect x="297.79" y="241.05" width="46.05" height="15.11"/>
      <rect x="348.5" y="241.05" width="52.81" height="15.11"/>
    </g>
    <g>
      <polygon points="667.46 237.25 665.39 222.14 587.65 222.14 585.58 237.25 667.46 237.25"/>
      <rect x="687.37" y="222.14" width="52.81" height="15.11"/>
      <path d="M887.69,237.25c-8.28-12.12-23.03-18.91-44.41-18.91h-2.11c-21.53,0-37.28,6.37-45.96,18.91h92.49Z"/>
      <polygon points="565.67 237.25 565.67 222.14 495.11 222.14 493.86 237.25 565.67 237.25"/>
      <polygon points="289.57 237.25 286.39 222.14 233.57 222.14 233.57 237.25 289.57 237.25"/>
      <polygon points="486.64 237.25 485.39 222.14 405.96 222.14 405.96 237.25 486.64 237.25"/>
      <polygon points="213.66 237.25 211.6 222.14 133.86 222.14 131.79 237.25 213.66 237.25"/>
      <rect x="297.79" y="222.14" width="46.05" height="15.11"/>
      <rect x="348.5" y="222.14" width="52.81" height="15.11"/>
    </g>
  </g>
</svg>