<?xml version="1.0" encoding="UTF-8"?>
<svg id="Layer_1" xmlns="http://www.w3.org/2000/svg" version="1.1" viewBox="0 0 40 40">
  <!-- Generator: Adobe Illustrator 29.1.0, SVG Export Plug-In . SVG Version: 2.1.0 Build 142)  -->
  <path d="M13.6,14.6l8.7-5.5v21.9l-8.7-5.5v-10.9ZM7,25.6h4.4v-10.9h-4.4v10.9ZM29.2,11.1l-1.6,1.6c2,1.9,3.3,4.5,3.3,7.4s-1.2,5.4-3.3,7.4l1.6,1.6c2.5-2.4,4.1-5.5,4.1-9s-1.6-6.7-4.1-9ZM28.6,20.1c0-2.3-1-4.3-2.6-5.9l-1.6,1.6c1.1,1.1,1.8,2.6,1.8,4.2s-.7,3.1-1.8,4.3l1.6,1.6c1.6-1.6,2.6-3.6,2.6-5.9Z"/>
</svg>